HIERARCHY
ROOT Hips
{
	OFFSET 0.000000 88.474243 0.000000
	CHANNELS 6 Xposition Yposition Zposition Zrotation Yrotation Xrotation 
	JOINT Hips_Spine
	{
		OFFSET 0.000000 0.000000 0.000000
		CHANNELS 3 Zrotation Yrotation Xrotation
		JOINT Spine
		{
			OFFSET 0.005100 8.711998 -0.691000
			CHANNELS 3 Zrotation Yrotation Xrotation
			JOINT Spine1
			{
				OFFSET -0.009200 8.660301 -1.275000
				CHANNELS 3 Zrotation Yrotation Xrotation
				JOINT Spine2
				{
					OFFSET 0.006300 9.852501 -1.857000
					CHANNELS 3 Zrotation Yrotation Xrotation
					JOINT Spine2_Neck
					{
						OFFSET 0.000000 0.000000 0.000000
						CHANNELS 3 Zrotation Yrotation Xrotation
						JOINT Neck
						{
							OFFSET 0.016300 11.420799 -0.263300
							CHANNELS 3 Zrotation Yrotation Xrotation
							End Site #name: Head
							{
								OFFSET -0.019200 9.262405 2.362500
							}
						}
					}
					JOINT Spine2_LeftShoulder
					{
						OFFSET 0.000000 0.000000 0.000000
						CHANNELS 3 Zrotation Yrotation Xrotation
						JOINT LeftShoulder
						{
							OFFSET 5.616900 6.732201 -0.345700
							CHANNELS 3 Zrotation Yrotation Xrotation
							JOINT LeftArm
							{
								OFFSET 10.664888 -0.183372 -2.440700
								CHANNELS 3 Zrotation Yrotation Xrotation
								JOINT LeftForeArm
								{
									OFFSET 27.459126 0.000000 0.000000
									CHANNELS 3 Zrotation Yrotation Xrotation
									End Site #name: LeftHand
									{
										OFFSET 21.306858 0.000000 0.000000
									}
								}
							}
						}
					}
					JOINT Spine2_RightShoulder
					{
						OFFSET 0.000000 0.000000 0.000000
						CHANNELS 3 Zrotation Yrotation Xrotation
						JOINT RightShoulder
						{
							OFFSET -5.580300 6.737503 -0.344400
							CHANNELS 3 Zrotation Yrotation Xrotation
							JOINT RightArm
							{
								OFFSET -10.679335 -0.188484 -2.383900
								CHANNELS 3 Zrotation Yrotation Xrotation
								JOINT RightForeArm
								{
									OFFSET -27.503529 0.000000 0.000000
									CHANNELS 3 Zrotation Yrotation Xrotation
									End Site #name: RightHand
									{
										OFFSET -21.306808 0.000000 0.000000
									}
								}
							}
						}
					}
				}
			}
		}
	}
	JOINT Hips_LeftUpLeg
	{
		OFFSET 0.000000 0.000000 0.000000
		CHANNELS 3 Zrotation Yrotation Xrotation
		JOINT LeftUpLeg
		{
			OFFSET 6.857700 -6.739601 0.312100
			CHANNELS 3 Zrotation Yrotation Xrotation
			JOINT LeftLeg
			{
				OFFSET -0.367590 -34.731552 -4.572400
				CHANNELS 3 Zrotation Yrotation Xrotation
				End Site #name: LeftFoot
				{
					OFFSET 0.367590 -34.656704 -6.067400
				}
			}
		}
	}
	JOINT Hips_RightUpLeg
	{
		OFFSET 0.000000 0.000000 0.000000
		CHANNELS 3 Zrotation Yrotation Xrotation
		JOINT RightUpLeg
		{
			OFFSET -6.876100 -6.733299 0.301000
			CHANNELS 3 Zrotation Yrotation Xrotation
			JOINT RightLeg
			{
				OFFSET 0.347353 -34.795158 -4.515900
				CHANNELS 3 Zrotation Yrotation Xrotation
				End Site #name: RightFoot
				{
					OFFSET -0.347353 -34.589367 -6.070300
				}
			}
		}
	}
}
MOTION
Frames: 17
Frame Time: 0.041667
-0.297796 -0.123339 -1.147782 -1.456721 -2.634038 -1.037293 0.000000 -0.000000 0.000000 -0.960550 0.759037 5.268359 -1.254837 -0.015352 2.864618 0.000000 0.000000 0.000000 -1.442873 -0.410020 1.784244 3.807202 -3.094287 9.401804 -1.353283 -0.425302 2.968993 -3.927473 6.627726 -0.676933 -70.691917 -4.487142 31.049931 0.114574 -7.473709 0.255650 -1.726625 -0.307213 2.535765 8.948107 -3.132945 0.431334 48.430002 36.363652 -6.819985 179.301036 41.249569 -179.780109 0.000000 -0.000000 -0.000000 1.606199 12.340469 -17.091796 3.054465 2.722611 18.601243 0.000000 -0.000000 0.000000 -0.934752 -10.192692 -12.415827 0.045665 -1.442418 17.564973 
-0.344489 -0.129374 -1.177632 -1.396909 -2.635167 -1.041383 0.000000 -0.000000 0.000000 -0.944776 0.748463 5.223825 -1.223061 -0.025546 2.864815 0.000000 0.000000 0.000000 -1.401956 -0.423197 1.800169 3.744803 -3.055972 9.393964 -1.319143 -0.439260 2.979888 -3.979412 6.573474 -0.671972 -70.827030 -4.722050 30.784276 0.115985 -7.205615 0.252604 -1.687339 -0.327063 2.548212 9.245820 -3.172811 0.422152 48.951492 36.058047 -6.129420 179.310000 41.386694 -179.781314 0.000000 -0.000000 -0.000000 1.613680 12.350905 -17.059338 3.036716 2.680841 18.543201 0.000000 -0.000000 0.000000 -0.930686 -10.187853 -12.396257 0.045547 -1.453309 17.538268 
-0.385215 -0.135520 -1.207693 -1.339766 -2.636742 -1.046032 0.000000 -0.000000 0.000000 -0.927845 0.738436 5.172618 -1.191112 -0.027904 2.860953 0.000000 0.000000 0.000000 -1.360839 -0.428588 1.815342 3.675901 -3.012027 9.386570 -1.283516 -0.446183 2.984958 -4.032347 6.523456 -0.666970 -70.964803 -4.981271 30.513231 0.116022 -6.928983 0.250638 -1.649454 -0.339333 2.558438 9.488744 -3.199024 0.408259 49.516911 35.712793 -5.378854 179.322290 41.612851 -179.780524 0.000000 -0.000000 -0.000000 1.616145 12.361692 -17.027296 3.019773 2.642623 18.484891 0.000000 -0.000000 0.000000 -0.927411 -10.185864 -12.376647 0.046498 -1.463286 17.509436 
-0.419836 -0.141695 -1.237943 -1.285422 -2.637303 -1.051824 0.000000 -0.000000 0.000000 -0.912069 0.727191 5.112877 -1.156073 -0.026794 2.855709 0.000000 0.000000 0.000000 -1.316818 -0.431214 1.831619 3.598016 -2.964415 9.373964 -1.246631 -0.446107 2.991469 -4.084359 6.463221 -0.661984 -71.095834 -5.236767 30.234380 0.116530 -6.641524 0.247590 -1.609352 -0.348175 2.569879 9.737504 -3.216701 0.392632 50.094535 35.349486 -4.604317 179.335636 41.868521 -179.779562 0.000000 -0.000000 -0.000000 1.617692 12.369212 -16.994419 3.004106 2.612024 18.424443 0.000000 -0.000000 0.000000 -0.927193 -10.179973 -12.359422 0.047270 -1.468961 17.486588 
-0.448199 -0.147852 -1.268377 -1.235322 -2.636796 -1.057344 0.000000 -0.000000 0.000000 -0.893300 0.714886 5.052075 -1.118844 -0.025453 2.851463 0.000000 0.000000 0.000000 -1.270688 -0.432700 1.850125 3.510869 -2.913888 9.359325 -1.208018 -0.445104 2.999132 -4.136893 6.399339 -0.655818 -71.226851 -5.487881 29.954710 0.116168 -6.357850 0.245487 -1.566578 -0.357935 2.582298 10.005847 -3.229882 0.376502 50.683559 34.936426 -3.792825 179.351267 42.151031 -179.777306 0.000000 -0.000000 -0.000000 1.620779 12.378429 -16.967599 2.992193 2.591262 18.375120 0.000000 -0.000000 0.000000 -0.929839 -10.173093 -12.343393 0.048948 -1.475730 17.465718 
-0.470534 -0.153918 -1.298892 -1.189397 -2.637279 -1.062733 0.000000 -0.000000 0.000000 -0.878227 0.703789 4.985512 -1.079584 -0.023797 2.847437 0.000000 0.000000 0.000000 -1.221835 -0.434490 1.870005 3.416794 -2.858468 9.333092 -1.165737 -0.444556 3.008390 -4.183615 6.332002 -0.649458 -71.347968 -5.731854 29.665466 0.115470 -6.060082 0.243105 -1.520800 -0.367542 2.594389 10.299638 -3.252760 0.357812 51.310394 34.454125 -2.888375 179.370108 42.502908 -179.774277 0.000000 -0.000000 -0.000000 1.620875 12.386049 -16.943266 2.980626 2.571911 18.325572 0.000000 -0.000000 0.000000 -0.932420 -10.165569 -12.326670 0.049044 -1.483769 17.444752 
-0.487061 -0.159912 -1.329544 -1.147064 -2.637605 -1.070354 0.000000 -0.000000 0.000000 -0.865906 0.694297 4.914773 -1.039447 -0.022018 2.843571 0.000000 0.000000 0.000000 -1.171612 -0.434733 1.892003 3.315974 -2.801487 9.299532 -1.122443 -0.443289 3.014448 -4.238223 6.253895 -0.642096 -71.481283 -5.972457 29.385033 0.114376 -5.756200 0.239249 -1.475653 -0.372728 2.605994 10.616145 -3.293065 0.332335 52.003633 33.873810 -1.890198 179.391643 42.912504 -179.770345 0.000000 -0.000000 -0.000000 1.622558 12.393018 -16.911939 2.974633 2.567174 18.273250 0.000000 -0.000000 0.000000 -0.937786 -10.156478 -12.305728 0.050165 -1.489686 17.416450 
-0.498019 -0.165786 -1.360206 -1.107763 -2.638586 -1.079471 0.000000 -0.000000 0.000000 -0.859003 0.682873 4.843718 -0.996919 -0.020527 2.839879 0.000000 0.000000 0.000000 -1.119457 -0.434911 1.915136 3.211196 -2.743069 9.256950 -1.075960 -0.440999 3.023222 -4.301142 6.172114 -0.634632 -71.621744 -6.229762 29.059370 0.113094 -5.442239 0.235389 -1.426479 -0.375928 2.616611 10.951310 -3.349040 0.300770 52.798893 33.212764 -0.754142 179.415123 43.396764 -179.764854 0.000000 -0.000000 -0.000000 1.621398 12.401950 -16.885190 2.971923 2.567880 18.225504 0.000000 -0.000000 0.000000 -0.946892 -10.151264 -12.287176 0.051090 -1.494239 17.398040 
-0.503646 -0.171469 -1.390965 -1.071841 -2.641525 -1.090732 0.000000 -0.000000 0.000000 -0.849867 0.670507 4.772542 -0.952339 -0.019632 2.836078 0.000000 0.000000 0.000000 -1.064929 -0.436482 1.939852 3.108873 -2.684054 9.198158 -1.026667 -0.438245 3.033463 -4.372878 6.079930 -0.624824 -71.741619 -6.487520 28.748930 0.111124 -5.123973 0.231621 -1.376397 -0.370381 2.633463 11.258508 -3.349170 0.273175 53.593843 32.504314 0.354105 179.443135 43.993853 -179.757816 0.000000 -0.000000 -0.000000 1.620186 12.410607 -16.860613 2.972901 2.579539 18.187481 0.000000 -0.000000 0.000000 -0.957721 -10.140725 -12.267492 0.050662 -1.502504 17.375103 
-0.503999 -0.176899 -1.421700 -1.040162 -2.648941 -1.100547 0.000000 -0.000000 0.000000 -0.843046 0.658578 4.695960 -0.906502 -0.019445 2.832770 0.000000 0.000000 0.000000 -1.008100 -0.438523 1.964362 3.006936 -2.627684 9.133555 -0.974785 -0.436725 3.043001 -4.443093 5.992696 -0.616500 -71.880926 -6.742561 28.417763 0.109982 -4.816603 0.228014 -1.326379 -0.363959 2.643238 11.505423 -3.303642 0.262329 54.231452 31.817697 1.346848 179.468958 44.704314 -179.753034 0.000000 -0.000000 -0.000000 1.617309 12.418403 -16.832943 2.976995 2.602772 18.147032 0.000000 -0.000000 0.000000 -0.969040 -10.130187 -12.248157 0.051539 -1.505291 17.351911 
-0.499101 -0.182045 -1.452459 -1.013151 -2.662401 -1.109762 0.000000 -0.000000 0.000000 -0.834152 0.642707 4.621746 -0.858780 -0.019332 2.831139 0.000000 0.000000 0.000000 -0.948606 -0.439618 1.991481 2.904203 -2.569309 9.063301 -0.920797 -0.434062 3.054688 -4.518432 5.889013 -0.605940 -72.003964 -7.004325 28.069230 0.107492 -4.481212 0.224874 -1.269825 -0.356553 2.654124 11.749323 -3.243849 0.253011 54.809677 31.205617 2.290387 179.496044 45.425118 -179.745763 0.000000 -0.000000 -0.000000 1.614702 12.424898 -16.806841 2.983158 2.631730 18.110634 0.000000 -0.000000 0.000000 -0.980611 -10.115719 -12.231970 0.053587 -1.508428 17.328690 
-0.488985 -0.186918 -1.483180 -0.990903 -2.677852 -1.117422 0.000000 -0.000000 0.000000 -0.824583 0.627815 4.549760 -0.808734 -0.019856 2.829345 0.000000 0.000000 0.000000 -0.886695 -0.440984 2.019942 2.796461 -2.509789 8.991201 -0.864176 -0.432793 3.065992 -4.599565 5.761338 -0.591033 -72.146246 -7.267342 27.750944 0.105870 -4.157291 0.222404 -1.209721 -0.350445 2.663820 11.972495 -3.181810 0.242862 55.426665 30.567126 3.278552 179.526951 46.203614 -179.737506 0.000000 -0.000000 -0.000000 1.613194 12.431574 -16.783782 2.992151 2.671029 18.079614 0.000000 -0.000000 0.000000 -0.994766 -10.095716 -12.214464 0.055292 -1.512115 17.305664 
-0.473665 -0.191362 -1.513861 -0.973506 -2.698322 -1.124873 0.000000 -0.000000 0.000000 -0.815003 0.612557 4.474034 -0.756988 -0.020995 2.829330 0.000000 0.000000 0.000000 -0.822882 -0.443070 2.048406 2.686277 -2.450189 8.917055 -0.804208 -0.431062 3.078010 -4.692236 5.620020 -0.574380 -72.281728 -7.545917 27.410609 0.103587 -3.817700 0.219301 -1.146579 -0.343224 2.674683 12.186082 -3.128743 0.230641 56.061886 29.899582 4.300807 179.549733 47.195868 -179.729995 0.000000 -0.000000 -0.000000 1.610610 12.437071 -16.763004 3.005698 2.718762 18.053939 0.000000 -0.000000 0.000000 -1.008758 -10.066783 -12.198335 0.055742 -1.518629 17.277575 
-0.452797 -0.195377 -1.544404 -0.961896 -2.721714 -1.130707 0.000000 -0.000000 0.000000 -0.802914 0.597104 4.400621 -0.705609 -0.022923 2.829683 0.000000 0.000000 0.000000 -0.763424 -0.445063 2.077897 2.569660 -2.388874 8.846017 -0.744566 -0.428891 3.089687 -4.780567 5.468072 -0.555253 -72.415393 -7.829797 27.096195 0.101190 -3.507112 0.217061 -1.084582 -0.334568 2.682764 12.385214 -3.060032 0.217305 56.984941 29.154518 5.564320 179.572061 48.282657 -179.729380 0.000000 -0.000000 -0.000000 1.604476 12.441721 -16.745107 3.019911 2.773054 18.035605 0.000000 -0.000000 0.000000 -1.024329 -10.034396 -12.183367 0.058146 -1.524263 17.249306 
-0.425997 -0.198842 -1.574765 -0.955870 -2.747631 -1.134641 0.000000 -0.000000 0.000000 -0.790118 0.580886 4.324591 -0.655933 -0.024616 2.827339 0.000000 0.000000 0.000000 -0.704720 -0.448503 2.107483 2.445520 -2.325877 8.775454 -0.687081 -0.426252 3.095906 -4.856209 5.318526 -0.534874 -72.529148 -8.112284 26.768796 0.099311 -3.196400 0.214575 -1.025052 -0.324321 2.685939 12.579210 -2.942119 0.209982 58.246586 27.955311 7.245751 179.600483 49.555134 -179.724201 0.000000 -0.000000 -0.000000 1.599532 12.446785 -16.728874 3.037332 2.840371 18.019540 0.000000 -0.000000 0.000000 -1.038856 -9.990452 -12.166939 0.060561 -1.531305 17.214225 
-0.392877 -0.201665 -1.604940 -0.954437 -2.772352 -1.137683 0.000000 -0.000000 0.000000 -0.778911 0.566649 4.246523 -0.609472 -0.025823 2.818415 0.000000 0.000000 0.000000 -0.650044 -0.447073 2.127429 2.312878 -2.261518 8.702602 -0.632986 -0.421759 3.095599 -4.912374 5.150943 -0.510893 -72.580035 -8.365404 26.364670 0.096876 -2.868610 0.210976 -0.970262 -0.311180 2.681805 12.726158 -2.798931 0.206319 59.545582 26.344263 8.851175 179.629269 51.278012 -179.724447 0.000000 -0.000000 -0.000000 1.592550 12.450361 -16.716611 3.054974 2.913624 18.008594 0.000000 -0.000000 0.000000 -1.056303 -9.941340 -12.153252 0.062978 -1.537371 17.182974 
-0.353078 -0.203817 -1.634783 -0.958240 -2.797403 -1.139383 0.000000 -0.000000 0.000000 -0.765699 0.553013 4.166942 -0.566488 -0.026699 2.804157 0.000000 0.000000 0.000000 -0.598310 -0.440008 2.135057 2.171726 -2.201451 8.631252 -0.583668 -0.415654 3.088494 -4.964095 4.964162 -0.479556 -72.592893 -8.585184 25.876668 0.096913 -2.582218 0.208589 -0.915620 -0.297315 2.667632 12.906138 -2.687823 0.194376 60.872753 24.608126 10.447991 179.647745 54.669500 -179.731598 0.000000 -0.000000 -0.000000 1.584524 12.453544 -16.706217 3.072840 2.991884 18.004874 0.000000 -0.000000 0.000000 -1.075460 -9.886216 -12.142834 0.067538 -1.540870 17.147933 
